<svg xmlns="http://www.w3.org/2000/svg" viewBox="0 0 333333 299339" shape-rendering="geometricPrecision" text-rendering="geometricPrecision" image-rendering="optimizeQuality" fill-rule="evenodd" clip-rule="evenodd"><path d="M17149 0v16885h33155V0h17149v40370h198427V0h17149v16885h33155V0h17149v299339h-17149v-19492h-33155v19492h-17149v-42200H67453v42200H50304v-19492H17149v19492H0V0h17149zm104036 97022h90964c2074 0 3928 848 5279 2199s2200 3236 2200 5279v90335c0 2074-849 3928-2200 5279s-3237 2199-5279 2199h-90964c-2074 0-3928-848-5279-2199s-2200-3236-2200-5279v-90335c0-2074 849-3928 2200-5279s3236-2199 5279-2199zm363 76133l30523-29222c1226-1131 3143-1006 4243 220 31 31 31 63 63 63l27116 32081 4148-25514c283-1634 1822-2766 3456-2483 628 94 1194 408 1634 817l19024 19983v-62793c0-408-157-754-440-1006-252-251-629-440-1006-440h-87347c-408 0-754 157-1006 440-252 252-440 629-440 1006v66847h32zm70191-59009c2985 0 5719 1225 7667 3173 1980 1980 3174 4681 3174 7667 0 2985-1226 5719-3174 7667-1979 1980-4681 3173-7667 3173-2985 0-5718-1225-7667-3173-1980-1980-3174-4681-3174-7667 0-2985 1225-5719 3174-7667 1980-1980 4682-3173 7667-3173zm74141-56628H67453v182470h198427V57518zm50304 205178v-32013h-33155v32013h33155zm0-49162v-32013h-33155v32013h33155zm0-49163v-32013h-33155v32013h33155zm0-49162V83196h-33155v32013h33155zm0-49162V34034h-33155v32013h33155zM50304 262697v-32013H17149v32013h33155zm0-49162v-32013H17149v32013h33155zm0-49163v-32013H17149v32013h33155zm0-49162V83197H17149v32013h33155zm0-49162V34035H17149v32013h33155z" fill-rule="nonzero"/></svg>