<svg xmlns="http://www.w3.org/2000/svg" viewBox="0 0 333333 300878" shape-rendering="geometricPrecision" text-rendering="geometricPrecision" image-rendering="optimizeQuality" fill-rule="evenodd" clip-rule="evenodd"><path d="M166667 97072c14524 0 27672 5887 37191 15406 9519 9518 15406 22667 15406 37191s-5887 27672-15406 37191c-9518 9519-22667 15406-37191 15406s-27672-5887-37191-15406c-9519-9518-15406-22667-15406-37191s5887-27672 15406-37191c9518-9519 22667-15406 37191-15406zM17150 0v16885h33155V0h17149v41909h198426V1539h17149v16886h33155V1539h17149v299339h-17149v-19493h-33155v19493h-17149v-42200H67454v40661H50305v-19493H17150v19493H1V0h17149zm50304 59058v182470h198426V59058H67454zm248731 205178v-32013h-33155v32013h33155zm0-49163v-32014h-33155v32014h33155zm0-49163v-32013h-33155v32013h33155zm0-49163V84735h-33155v32012h33155zm0-49162V35572h-33155v32013h33155zM50305 262696v-32013H17150v32013h33155zm0-49162v-32013H17150v32013h33155zm0-49163v-32013H17150v32013h33155zm0-49162V83196H17150v32013h33155zm0-49162V34034H17150v32013h33155zm121591 62928h12796v41386h-12796v-41386zm-23253 0h12796v41386h-12796v-41386z"/></svg>